<?xml version="1.0" encoding="UTF-8" standalone="no"?>
<!-- Created with Inkscape (http://www.inkscape.org/) -->

<svg
   xmlns:dc="http://purl.org/dc/elements/1.1/"
   xmlns:cc="http://creativecommons.org/ns#"
   xmlns:rdf="http://www.w3.org/1999/02/22-rdf-syntax-ns#"
   xmlns:svg="http://www.w3.org/2000/svg"
   xmlns="http://www.w3.org/2000/svg"
   xmlns:sodipodi="http://sodipodi.sourceforge.net/DTD/sodipodi-0.dtd"
   xmlns:inkscape="http://www.inkscape.org/namespaces/inkscape"
   id="svg2987"
   version="1.1"
   inkscape:version="0.48.2 r9819"
   width="745"
   height="1053"
   sodipodi:docname="02right45.svg">
  <metadata
     id="metadata2993">
    <rdf:RDF>
      <cc:Work
         rdf:about="">
        <dc:format>image/svg+xml</dc:format>
        <dc:type
           rdf:resource="http://purl.org/dc/dcmitype/StillImage" />
        <dc:title />
      </cc:Work>
    </rdf:RDF>
  </metadata>
  <defs
     id="defs2991">
    <inkscape:perspective
       sodipodi:type="inkscape:persp3d"
       inkscape:vp_x="0 : 526.5 : 1"
       inkscape:vp_y="0 : 1000 : 0"
       inkscape:vp_z="745 : 526.5 : 1"
       inkscape:persp3d-origin="372.5 : 351 : 1"
       id="perspective3280" />
  </defs>
  <sodipodi:namedview
     pagecolor="#ffffff"
     bordercolor="#666666"
     borderopacity="1"
     objecttolerance="10"
     gridtolerance="10"
     guidetolerance="10"
     inkscape:pageopacity="0"
     inkscape:pageshadow="2"
     inkscape:window-width="1366"
     inkscape:window-height="706"
     id="namedview2989"
     showgrid="false"
     inkscape:zoom="1.11"
     inkscape:cx="274.37858"
     inkscape:cy="958.83587"
     inkscape:window-x="-8"
     inkscape:window-y="-8"
     inkscape:window-maximized="0"
     inkscape:current-layer="svg2987" />
  <path
     inkscape:connector-curvature="0"
     style="fill:none;stroke:#000000;stroke-width:4.007;stroke-linecap:butt;stroke-linejoin:miter;stroke-opacity:1;stroke-miterlimit:4;stroke-dasharray:none;marker-start:none"
     d="m 261.44017,40.960338 36.37247,134.420002 -44.27953,-55.34941 c -1.36113,90.59048 -11.80784,148.62439 33.20965,166.04824 -21.63591,55.88819 -24.59668,102.43882 -30.04682,150.23413 l -20.55836,-15.81412 c -10.26734,-5.05293 -16.92852,13.30273 -6.32565,20.55835 l 20.55836,22.13977 -28.46541,-23.72118 c -11.76125,-4.09337 -26.69959,-4.98554 -18.97695,14.23271 l 41.11671,49.02377 -25.30259,-22.13977 c -13.60879,-5.01226 -23.66391,-7.61895 -18.97694,18.97694 l 34.72807,36.30949 -9.42548,132.90158 28.46541,-39.5353 1.58141,55.34942 34.79107,-52.18659 0,45.86094 25.36557,-62.02913 c 30.19463,114.05844 29.70216,231.57799 -15.8771,349.84609 -7.37993,10.54275 -4.21709,16.86839 9.48847,18.97694 l 56.93082,15.81419 36.37248,-3.16294 6.32564,-11.06984 c -34.534,-31.65427 -58.80964,-22.27508 -85.39624,-22.13976 66.20857,-214.284 23.32705,-267.53026 6.32565,-358.98049 l 28.46542,-0.64516 c 37.47068,92.39545 49.15563,199.46372 11.06988,342.23012 2.34648,15.10033 9.43138,15.9854 15.81412,18.97694 l 79.07059,12.65129 0,10e-6 c 18.16663,-10.01562 14.34212,-20.03123 3.16282,-30.04684 L 391.11594,937.62085 C 408.5962,820.2503 424.75853,702.95728 372.139,589.71025 c 11.29209,24.89347 18.72357,49.78695 24.88554,74.68042 l 6.7427,-24.07524 12.65129,7.90706 c -3.68996,-116.49734 25.32339,-347.45627 -11.06988,-349.49202 28.15078,-19.5395 33.06471,-35.20619 36.37247,-50.60518 l 77.48918,-26.884 c 7.2801,-11.69484 8.14999,-11.24031 -5.6175,-13.10751 -29.90514,14.0754 -74.19933,17.95098 -120.89544,19.43315 -16.38288,0.4361 -10.90668,-3.22637 0,-7.90706 56.94795,-19.31793 100.09403,-24.40511 161.05207,-57.03297 11.361,-18.86319 16.11846,-24.05045 -11.69121,-15.94008 -26.77747,13.81211 -56.42854,17.7798 -84.52298,30.27493 0.6223,-25.90374 -4.23892,-47.54252 -41.11671,-44.27953 C 376.27962,87.707581 317.81404,65.641277 261.44017,40.960338 z"
     id="path2821"
     sodipodi:nodetypes="ccccccccccccccccccccccccccccccccccccccccccccccccc" />
  <path
     inkscape:connector-curvature="0"
     style="fill:none;stroke:#000000;stroke-width:3.013;stroke-linecap:butt;stroke-linejoin:miter;stroke-opacity:1;stroke-miterlimit:4;stroke-dasharray:none"
     d="m 271.00526,276.64801 c -12.02639,-25.33285 12.67985,-31.45185 33.97272,-36.43062 -20.91638,-44.73562 9.35407,-41.06485 33.97273,-41.11124 l 14.55975,-7.90601"
     id="path2823"
     sodipodi:nodetypes="cccc" />
  <path
     inkscape:connector-curvature="0"
     style="fill:none;stroke:#000000;stroke-width:3;stroke-linecap:butt;stroke-linejoin:miter;stroke-opacity:1;stroke-miterlimit:4;stroke-dasharray:none"
     d="M 298.16052,213.32803 251.7298,212.63228"
     id="path2825"
     sodipodi:nodetypes="cc" />
  <path
     inkscape:connector-curvature="0"
     style="fill:none;stroke:#000000;stroke-width:3.002;stroke-linecap:butt;stroke-linejoin:miter;stroke-opacity:1;stroke-miterlimit:4;stroke-dasharray:none"
     d="m 326.27806,298.73047 c -19.45152,8.90108 0.25775,213.67969 -14.23271,322.60801"
     id="path2827"
     sodipodi:nodetypes="cc" />
  <path
     inkscape:connector-curvature="0"
     style="fill:none;stroke:#000000;stroke-width:1.00200105;stroke-linecap:butt;stroke-linejoin:miter;stroke-opacity:1;stroke-miterlimit:4;stroke-dasharray:none"
     d="m 406.57599,297.50312 -34.79106,12.6513"
     id="path2829" />
  <path
     inkscape:connector-curvature="0"
     style="fill:none;stroke:#000000;stroke-width:3.002;stroke-linecap:butt;stroke-linejoin:miter;stroke-opacity:1;stroke-miterlimit:4;stroke-dasharray:none"
     d="m 380.91933,304.99313 c 14.38292,27.60258 -13.62528,140.77991 3.22581,258.93449 -1.29863,22.6817 -17.99746,27.39651 -28.5284,39.30719"
     id="path2831"
     sodipodi:nodetypes="ccc" />
  <path
     inkscape:connector-curvature="0"
     style="fill:none;stroke:#000000;stroke-width:1.00200105;stroke-linecap:butt;stroke-linejoin:miter;stroke-opacity:1;stroke-miterlimit:4;stroke-dasharray:none"
     d="m 330.44012,605.23327 -16.23118,-7.97003"
     id="path2833"
     sodipodi:nodetypes="cc" />
  <path
     inkscape:connector-curvature="0"
     style="fill:none;stroke:#000000;stroke-width:3;stroke-linecap:butt;stroke-linejoin:miter;stroke-opacity:1;stroke-miterlimit:4;stroke-dasharray:none"
     d="m 368.86379,203.88103 c -17.35552,7.9755 -53.72011,53.8485 72.8801,44.41613"
     id="path2837"
     sodipodi:nodetypes="cc" />
  <path
     inkscape:connector-curvature="0"
     style="fill:none;stroke:#000000;stroke-width:3.002;stroke-linecap:butt;stroke-linejoin:miter;stroke-opacity:1;stroke-miterlimit:4;stroke-dasharray:none"
     d="m 365.62935,322.57621 c -0.72347,17.69284 4.55952,47.39861 -7.09678,43.22581"
     id="path2841"
     sodipodi:nodetypes="cc" />
  <path
     sodipodi:type="arc"
     style="fill:#000000;fill-opacity:1;stroke-width:1.00200105;stroke-miterlimit:4;stroke-dasharray:none"
     id="path2847"
     sodipodi:cx="396.7742"
     sodipodi:cy="176.2258"
     sodipodi:rx="7.7419353"
     sodipodi:ry="7.0967741"
     d="m 404.51614,176.2258 a 7.7419353,7.0967741 0 1 1 -15.48387,0 7.7419353,7.0967741 0 1 1 15.48387,0 z"
     transform="translate(-13.725489,-7.8431373)" />
  <path
     sodipodi:type="arc"
     style="fill:#000000;fill-opacity:1;stroke-width:1.00200105;stroke-miterlimit:4;stroke-dasharray:none"
     id="path2849"
     sodipodi:cx="449.35483"
     sodipodi:cy="161.70967"
     sodipodi:rx="7.4193549"
     sodipodi:ry="7.4193549"
     d="m 456.77418,161.70967 a 7.4193549,7.4193549 0 1 1 -14.83871,0 7.4193549,7.4193549 0 1 1 14.83871,0 z"
     transform="translate(-13.725489,-7.8431373)" />
  <path
     inkscape:connector-curvature="0"
     style="fill:none;stroke:#000000;stroke-width:3.002;stroke-linecap:butt;stroke-linejoin:miter;stroke-opacity:1;stroke-miterlimit:4;stroke-dasharray:none"
     d="m 366.27451,153.54396 c -18.76251,14.84248 -15.8981,28.14019 -10.96774,41.29032 11.63773,8.09756 22.96713,17.12011 41.29032,5.16129 1.84566,-8.73372 9.76972,-15.99582 16.7742,-21.29032 -2.97506,1.50064 -11.58873,-7.33568 -10.96775,-19.35484 -10.5835,-12.10615 -23.9285,-6.63652 -36.12903,-5.80645 z"
     id="path2851"
     sodipodi:nodetypes="cccccc" />
  <path
     inkscape:connector-curvature="0"
     style="fill:none;stroke:#000000;stroke-width:3.002;stroke-linecap:butt;stroke-linejoin:miter;stroke-opacity:1;stroke-miterlimit:4;stroke-dasharray:none"
     d="m 404.98419,170.96331 c -6.61697,-10.37713 -1.12257,-36.94957 18.06452,-38.70968"
     id="path2853"
     sodipodi:nodetypes="cc" />
  <path
     inkscape:connector-curvature="0"
     style="fill:none;stroke:#000000;stroke-width:3;stroke-linecap:butt;stroke-linejoin:miter;stroke-opacity:1;stroke-miterlimit:4;stroke-dasharray:none"
     d="m 411.49915,179.93222 c 17.43181,-4.44101 30.44491,-9.65739 46.09842,-4.00787"
     id="path2855"
     sodipodi:nodetypes="cc" />
  <path
     inkscape:connector-curvature="0"
     style="fill:none;stroke:#000000;stroke-width:1.00200105;stroke-linecap:butt;stroke-linejoin:miter;stroke-opacity:1;stroke-miterlimit:4;stroke-dasharray:none"
     d="m 285.62935,286.44718 c 30.58031,-8.50441 33.68843,3.13745 39.35484,12.90323"
     id="path2857"
     sodipodi:nodetypes="cc" />
  <path
     inkscape:connector-curvature="0"
     style="fill:none;stroke:#000000;stroke-width:1.00200105;stroke-linecap:butt;stroke-linejoin:miter;stroke-opacity:1;stroke-miterlimit:4;stroke-dasharray:none"
     d="m 254.66161,436.1246 -20,106.45161"
     id="path2859"
     sodipodi:nodetypes="cc" />
  <path
     inkscape:connector-curvature="0"
     style="fill:none;stroke:#000000;stroke-width:3.002;stroke-linecap:butt;stroke-linejoin:miter;stroke-opacity:1;stroke-miterlimit:4;stroke-dasharray:none"
     d="m 242.40354,503.22138 c 8.34941,10.22417 47.3259,6.31277 76.12903,7.09677"
     id="path2861"
     sodipodi:nodetypes="cc" />
  <path
     inkscape:connector-curvature="0"
     style="fill:none;stroke:#000000;stroke-width:3.002;stroke-linecap:butt;stroke-linejoin:miter;stroke-opacity:1;stroke-miterlimit:4;stroke-dasharray:none"
     d="m 237.24225,524.5117 c 9.20528,17.9425 53.1725,7.44342 80,10.96774"
     id="path2863"
     sodipodi:nodetypes="cc" />
  <path
     inkscape:connector-curvature="0"
     style="fill:none;stroke:#000000;stroke-width:3.002;stroke-linecap:butt;stroke-linejoin:miter;stroke-opacity:1;stroke-miterlimit:4;stroke-dasharray:none"
     d="m 233.37128,548.38267 c 29.67493,11.81304 57.63689,13.34824 83.87097,4.51613"
     id="path2865"
     sodipodi:nodetypes="cc" />
  <path
     inkscape:connector-curvature="0"
     style="fill:none;stroke:#000000;stroke-width:3.002;stroke-linecap:butt;stroke-linejoin:miter;stroke-opacity:1;stroke-miterlimit:4;stroke-dasharray:none"
     d="m 232.72612,571.60847 c 27.97377,9.25033 57.39401,14.12157 83.66559,1.24345"
     id="path2867"
     sodipodi:nodetypes="cc" />
  <path
     inkscape:connector-curvature="0"
     style="fill:none;stroke:#000000;stroke-width:3.002;stroke-linecap:butt;stroke-linejoin:miter;stroke-opacity:1;stroke-miterlimit:4;stroke-dasharray:none"
     d="m 383.69386,558.06008 c 10.07283,1.32503 19.19296,3.60275 34.19355,10e-6"
     id="path2869"
     sodipodi:nodetypes="cc" />
  <path
     inkscape:connector-curvature="0"
     style="fill:none;stroke:#000000;stroke-width:3.002;stroke-linecap:butt;stroke-linejoin:miter;stroke-opacity:1;stroke-miterlimit:4;stroke-dasharray:none"
     d="m 380.46806,541.28589 c 12.47312,5.26628 24.94623,6.56053 37.41935,3.22581"
     id="path2871"
     sodipodi:nodetypes="cc" />
  <path
     inkscape:connector-curvature="0"
     style="fill:none;stroke:#000000;stroke-width:3.002;stroke-linecap:butt;stroke-linejoin:miter;stroke-opacity:1;stroke-miterlimit:4;stroke-dasharray:none"
     d="m 379.17774,521.28589 c 13.11828,4.958 26.23655,7.24398 39.35483,1.93549"
     id="path2873"
     sodipodi:nodetypes="cc" />
  <path
     inkscape:connector-curvature="0"
     style="fill:none;stroke:#000000;stroke-width:3.002;stroke-linecap:butt;stroke-linejoin:miter;stroke-opacity:1;stroke-miterlimit:4;stroke-dasharray:none"
     d="m 378.53257,502.57621 c 13.33333,2.45337 28.39677,8.1096 41.7301,0.94431"
     id="path2875"
     sodipodi:nodetypes="cc" />
  <path
     inkscape:connector-curvature="0"
     style="fill:#000000;fill-opacity:1;stroke:#000000;stroke-width:0.2131917;stroke-miterlimit:4;stroke-dasharray:none"
     d="m 268.03827,271.34562 c -0.77755,-0.97615 -1.98883,-2.63653 -2.69173,-3.68972 -1.59713,-2.39308 -4.53547,-8.36305 -5.70727,-11.59574 -3.5715,-9.85291 -5.61423,-22.55798 -6.30294,-39.20213 l -0.14747,-3.56383 2.53052,0.005 c 1.39178,0.003 11.09966,0.14411 21.57306,0.31426 10.47341,0.17015 19.48452,0.31157 20.02471,0.31426 l 0.98216,0.005 0.11867,3.24468 c 0.0832,2.27537 0.28037,4.01087 0.65993,5.80944 0.87556,4.14891 3.06464,10.54158 5.23152,15.27733 0.36719,0.80251 0.63806,1.48361 0.60191,1.51356 -0.0361,0.0299 -2.12422,0.55489 -4.64018,1.16656 -14.06267,3.41884 -22.37111,7.06046 -27.18058,11.91338 -4.79963,4.84298 -6.09175,11.0685 -3.85952,18.59543 0.23758,0.8011 0.38449,1.50403 0.32646,1.56206 -0.058,0.058 -0.74169,-0.69316 -1.51925,-1.66932 l 0,0 z"
     id="path2881" />
  <path
     inkscape:connector-curvature="0"
     style="fill:#333333;fill-opacity:1;stroke:#000000;stroke-width:0.2131917;stroke-miterlimit:4;stroke-dasharray:none"
     d="m 406.12221,248.88333 c -26.09476,-0.5043 -43.55066,-4.79386 -50.63153,-12.44204 -1.39763,-1.50962 -2.26561,-2.95064 -2.92978,-4.86405 -0.39814,-1.14702 -0.47827,-1.8186 -0.46962,-3.93617 0.009,-2.21281 0.0903,-2.7943 0.60965,-4.36171 1.40211,-4.2316 3.58863,-7.54216 7.66139,-11.59992 3.13651,-3.12496 4.43688,-4.16373 7.51414,-6.00251 1.02452,-0.61219 1.96886,-1.20168 2.09853,-1.30997 0.1502,-0.12543 0.87283,0.0285 1.99112,0.42428 3.33737,1.181 4.47502,1.36046 8.62418,1.36046 2.99367,0 4.17818,-0.0852 5.42554,-0.39047 3.40229,-0.83254 7.18065,-2.42026 10.30644,-4.33093 1.59254,-0.97345 1.70432,-1.09108 1.94926,-2.05125 0.75155,-2.94606 2.60566,-6.38985 5.27146,-9.79113 1.51322,-1.93069 5.58357,-5.96204 7.95538,-7.87914 l 1.54638,-1.24991 5.90043,-1.57216 c 13.32229,-3.5497 17.82771,-4.43635 23.77277,-4.67842 4.68518,-0.19077 9.20236,0.37699 13.51064,1.69816 1.51569,0.46479 1.59909,0.52325 1.66242,1.16517 0.0367,0.37171 0.10946,0.67583 0.16177,0.67583 0.0523,0 1.59978,-0.63338 3.43884,-1.4075 8.92511,-3.75688 18.25967,-6.95202 34.73697,-11.89015 23.49437,-7.04109 32.59856,-10.29095 43.82979,-15.64559 2.90231,-1.38372 4.20259,-1.86182 7.50393,-2.7591 5.69005,-1.54651 8.6415,-2.13754 11.37062,-2.27697 4.2158,-0.21538 4.75244,0.45616 3.34998,4.19207 -0.52529,1.3993 -3.2705,6.30664 -6.37767,11.40071 l -1.69793,2.78369 -5.63829,2.91222 c -17.52865,9.05364 -34.06138,16.19025 -53.29788,23.00684 -12.0119,4.2565 -25.69371,8.46732 -48.40425,14.89726 -34.0235,9.63294 -50.31729,14.67363 -56.47588,17.47154 -6.42665,2.91969 -8.62054,4.82404 -7.31117,6.34628 0.74166,0.86224 2.31673,1.19826 6.23386,1.32991 5.11229,0.17182 29.66623,-0.91768 41.80851,-1.85511 35.89545,-2.77128 61.32062,-7.88376 80.48456,-16.1838 l 2.97304,-1.28765 1.94141,0.24608 c 2.78317,0.35277 6.14934,1.01716 7.0409,1.38967 1.70559,0.71264 1.47143,1.65597 -1.68736,6.79768 -1.15026,1.87234 -2.10868,3.42757 -2.12981,3.45607 -0.0211,0.0285 -17.55233,6.12573 -38.95824,13.54942 l -38.91982,13.49762 -5.10638,0.32966 c -9.43545,0.60915 -23.08155,0.98107 -30.6383,0.83503 l 0,0 z"
     id="path2885" />
  <path
     inkscape:connector-curvature="0"
     style="fill:#00afd5;fill-opacity:1;stroke:#00afd5;stroke-width:0.34671316;stroke-miterlimit:4;stroke-opacity:1;stroke-dasharray:none"
     d="m 270.0075,211.34331 c -7.13668,-0.12715 -14.285,-0.25294 -15.88515,-0.27953 l -2.90937,-0.0484 0.22268,-17.21453 c 0.12248,-9.468 0.45021,-24.1436 0.72828,-32.61246 0.27808,-8.46886 0.6116,-20.69204 0.74117,-27.16263 0.12957,-6.47059 0.33334,-11.94976 0.45282,-12.17594 0.12519,-0.23695 9.29994,10.94435 21.6493,26.38409 11.78763,14.73742 21.51863,26.79293 21.62446,26.79001 0.10583,-0.003 0.37561,-0.12181 0.59951,-0.26422 0.29318,-0.18646 -4.6221,-18.84096 -17.56376,-66.65815 -9.88398,-36.519579 -17.91243,-66.457669 -17.84101,-66.52909 0.23721,-0.237212 36.01957,15.370589 51.07092,22.276469 37.57107,17.238412 61.88409,31.839683 83.0617,49.882971 4.51332,3.84533 19.03391,18.06233 19.02848,18.63063 -10e-4,0.15353 -0.66323,0.65407 -1.47059,1.11231 -6.39752,3.63113 -11.24809,11.9815 -12.53723,21.58314 l -0.22221,1.65506 -1.7436,-1.56765 c -2.3142,-2.08067 -6.06575,-3.88265 -9.40017,-4.51518 -3.94768,-0.74887 -8.76516,-0.61268 -17.25211,0.48773 l -7.50746,0.97341 -2.05429,1.77965 c -6.23928,5.40519 -10.27188,11.27463 -11.88755,17.30233 -1.06779,3.98366 -0.99522,9.48886 0.18918,14.35072 0.50211,2.06108 0.91292,3.87385 0.91292,4.02838 0,0.15453 -3.16044,1.99154 -7.02319,4.08223 l -7.02319,3.80127 -11.0564,0.19346 c -13.78835,0.24126 -17.4028,0.8142 -22.74316,3.6051 -3.78025,1.97558 -6.42375,5.41292 -7.32243,9.52138 l -0.20814,0.95155 -6.82732,-0.0665 c -3.75502,-0.0366 -12.66642,-0.17052 -19.80309,-0.29766 z"
     id="path2899" />
  <path
     inkscape:connector-curvature="0"
     style="fill:#00afd5;fill-opacity:1;stroke:#00afd5;stroke-width:0;stroke-miterlimit:4;stroke-opacity:1;stroke-dasharray:none"
     d="m 274.02258,509.54907 c -15.9279,-0.41517 -23.57889,-1.72157 -28.82342,-4.92154 -1.5939,-0.97252 -1.6369,-1.03973 -1.06766,-1.66875 0.56254,-0.62159 0.55429,-0.69675 -0.1599,-1.45697 l -0.75304,-0.80158 3.47163,-18.45884 c 1.90939,-10.15236 3.63744,-18.65863 3.8401,-18.90282 0.20266,-0.2442 0.27117,-0.60145 0.15223,-0.79389 -0.11893,-0.19244 0.81156,-5.84373 2.06776,-12.55841 2.85159,-15.24237 2.52798,-13.92644 3.2615,-13.26261 0.32519,0.29428 0.74749,0.53507 0.93847,0.53507 0.20239,0 1.10459,-6.96377 2.16302,-16.69551 4.12126,-37.89324 7.09565,-58.27968 11.28221,-77.32821 4.06292,-18.486 8.84887,-34.87051 15.21244,-52.07915 1.86196,-5.03521 1.04832,-4.41139 7.61881,-5.84134 4.81024,-1.04687 14.61554,-1.14754 17.47405,-0.17941 5.32385,1.80311 8.95059,5.47238 12.72859,12.87786 0.71359,1.39875 0.71403,1.4191 0.0518,2.42161 -0.97425,1.47484 -2.28378,5.08453 -3.06568,8.45044 -3.34223,14.3876 -4.38132,42.93948 -3.82819,105.19031 0.16994,19.1263 0.41921,48.43859 0.55393,65.13841 l 0.24494,30.36333 -16.29017,0 c -8.95959,0 -16.49755,0.0515 -16.751,0.11452 -0.25346,0.063 -4.89854,-0.001 -10.32242,-0.14252 z"
     id="path2903" />
  <path
     inkscape:connector-curvature="0"
     style="fill:#00afd5;fill-opacity:1;stroke:#00afd5;stroke-width:0.34671316;stroke-miterlimit:4;stroke-opacity:1;stroke-dasharray:none"
     d="m 396.35863,656.86973 c -4.69502,-19.75936 -12.5451,-42.7139 -21.41326,-62.61491 l -2.23577,-5.0173 2.14849,-2.24913 c 2.98433,-3.12413 4.75541,-5.58245 6.3955,-8.87716 2.5266,-5.0756 3.90161,-12.30949 3.22904,-16.9879 -0.36958,-2.57073 -0.96272,-2.42627 5.81238,-1.41553 8.35575,1.24654 20.27925,0.96053 25.9072,-0.62145 l 0.83015,-0.23335 -0.23664,6.02271 c -0.80341,20.44794 -1.00684,29.62804 -1.2039,54.32888 l -0.21976,27.54492 -5.98252,-3.74869 c -3.81328,-2.38943 -6.0399,-3.5945 -6.14077,-3.32346 -0.087,0.23386 -1.46098,5.08981 -3.05321,10.79098 l -2.89495,10.36578 -0.94198,-3.96439 z"
     id="path2905" />
  <path
     inkscape:connector-curvature="0"
     style="fill:#00afd5;fill-opacity:1;stroke:#00afd5;stroke-width:0.34671316;stroke-miterlimit:4;stroke-opacity:1;stroke-dasharray:none"
     d="m 274.32327,557.56768 c -11.82926,-0.99484 -23.78204,-3.67217 -35.81336,-8.02191 l -4.1067,-1.48472 0.12776,-2.57463 c 0.0703,-1.41605 0.31065,-2.75751 0.53417,-2.98103 0.22352,-0.22352 1.01059,-3.69094 1.74903,-7.70537 l 1.34263,-7.29898 1.35554,1.22465 c 3.83382,3.46362 8.79955,5.33874 17.55523,6.62904 3.41888,0.50384 6.05009,0.5627 18.68512,0.41799 21.56928,-0.24702 37.31447,-0.19932 39.20476,0.11879 l 1.66151,0.2796 -0.10442,7.91797 c -0.0616,4.67394 -0.24618,8.05797 -0.45044,8.25967 -1.01033,0.99771 -12.73739,3.71435 -20.24221,4.68923 -5.22345,0.67853 -16.44221,0.95495 -21.49862,0.5297 l 0,0 z"
     id="path2909" />
  <path
     inkscape:connector-curvature="0"
     style="fill:#00afd5;fill-opacity:1;stroke:#00afd5;stroke-width:0.34671316;stroke-miterlimit:4;stroke-opacity:1;stroke-dasharray:none"
     d="m 399.80113,545.43675 c -4.43553,-0.35497 -9.28716,-1.37261 -13.98681,-2.93378 l -3.72454,-1.23725 -0.58523,-7.32898 c -0.32188,-4.03094 -0.67579,-8.24788 -0.78646,-9.37099 -0.18638,-1.89135 -0.15359,-2.02373 0.44437,-1.79421 0.35507,0.13628 2.19412,0.70784 4.08676,1.27014 6.20469,1.84336 9.69119,2.4256 15.76298,2.63235 4.92719,0.16778 6.23528,0.0936 9.54847,-0.54165 2.11152,-0.40484 4.7452,-1.04781 5.85263,-1.42882 1.10742,-0.38101 2.03536,-0.65341 2.0621,-0.60534 0.0267,0.0481 -0.14185,3.98013 -0.37462,8.73792 -0.23278,4.75778 -0.43591,9.20106 -0.45141,9.87396 l -0.0282,1.22344 -3.02768,0.59578 c -5.0046,0.98479 -9.99804,1.29111 -14.79239,0.90743 z"
     id="path2911" />
  <path
     inkscape:connector-curvature="0"
     style="fill:#00afd5;fill-opacity:1;stroke:#00afd5;stroke-width:0.34671316;stroke-miterlimit:4;stroke-opacity:1;stroke-dasharray:none"
     d="m 255.57772,677.4371 c -0.11787,-3.10078 -0.48371,-15.39918 -0.81299,-27.32979 -0.32927,-11.93061 -0.70362,-21.62716 -0.83189,-21.54789 -0.12826,0.0793 -6.44341,8.77429 -14.03366,19.32225 -7.59026,10.54797 -13.83526,19.14571 -13.87778,19.10609 -0.12029,-0.11206 6.52231,-93.44258 6.66047,-93.58164 0.0674,-0.0678 2.74004,0.66455 5.93923,1.62749 28.60918,8.61122 50.4574,9.45594 69.85686,2.70087 1.88865,-0.65765 4.18647,-1.53549 5.10626,-1.95075 0.9198,-0.41527 1.72491,-0.70249 1.78914,-0.63826 0.4649,0.46491 -2.09473,31.80501 -3.47005,42.48723 -0.62308,4.83947 -0.62323,4.85866 -0.0386,4.85866 0.30828,0 -3.26077,9.12528 -10.29411,26.31978 l -10.76601,26.31978 -0.17301,-21.90801 -0.17301,-21.90802 -17.08295,25.60554 c -9.39563,14.08304 -17.1956,25.72904 -17.33328,25.87999 -0.13768,0.15095 -0.34676,-2.26255 -0.46463,-5.36332 l 0,0 z"
     id="path2913" />
  <path
     inkscape:connector-curvature="0"
     style="fill:#00afd5;fill-opacity:1;stroke:#00afd5;stroke-width:0.34671316;stroke-miterlimit:4;stroke-opacity:1;stroke-dasharray:none"
     d="m 401.35822,506.13877 c -3.60691,-0.32436 -7.67119,-1.03009 -15.57093,-2.7038 l -6.05537,-1.28293 -0.27607,-8.13149 c -0.15184,-4.47232 -0.18632,-15.37197 -0.0766,-24.22146 0.31516,-25.42486 0.93256,-39.01788 3.63051,-79.93079 0.93496,-14.1782 1.89622,-28.81488 2.13613,-32.52595 0.2399,-3.71108 0.44252,-13.20935 0.45026,-21.10727 0.0164,-16.7733 -0.32138,-20.27004 -2.75969,-28.56668 -0.19264,-0.65547 0.64408,-1.02186 10.53726,-4.61411 l 10.7465,-3.9021 1.79408,0.38476 c 2.2062,0.47314 3.60416,1.3133 5.36265,3.22291 4.82112,5.23543 8.34505,18.20817 10.16548,37.42245 1.98303,20.93043 2.22418,57.66927 0.6623,100.89706 -0.6578,18.20558 -2.41958,59.35186 -2.60258,60.78303 -0.17876,1.39796 -0.24818,1.46609 -2.35192,2.30828 -4.26913,1.70904 -10.30614,2.46141 -15.79199,1.96809 z"
     id="path2915" />
  <path
     inkscape:connector-curvature="0"
     style="fill:#502d16;fill-opacity:1;stroke:#502d16;stroke-width:0.65085948;stroke-opacity:1;stroke-miterlimit:4;stroke-dasharray:none"
     d="m 335.72677,991.69293 c -16.69531,-4.59174 -31.57201,-8.78294 -33.05934,-9.3138 -6.0774,-2.16913 -7.5457,-6.2782 -4.40249,-12.32041 4.12536,-7.93021 14.16349,-37.70968 20.07829,-59.565 12.94368,-47.82715 19.37156,-100.1824 18.3199,-149.21613 -1.00392,-46.80833 -6.01471,-84.59834 -17.76405,-133.97168 -1.67908,-7.05584 -3.26609,-12.82881 -3.5267,-12.82881 -0.26061,0 -0.76742,0.80383 -1.12624,1.78629 l -0.65241,1.78629 -0.0494,-1.6239 c -0.0497,-1.63339 0.98267,-11.50277 1.61294,-15.41895 l 0.33846,-2.10298 6.41785,3.22062 c 3.61423,1.81371 6.57359,3.72555 6.77437,4.37645 0.19608,0.63569 1.25328,5.48923 2.34934,10.78563 1.09605,5.29641 3.90235,17.13463 6.23622,26.30717 10.92818,42.9498 12.60982,50.18396 15.44251,66.43162 11.88089,68.14582 3.11419,143.99088 -28.7486,248.71839 -1.23041,4.04415 -1.63366,6.26095 -1.17009,6.43235 0.38904,0.14384 7.48255,-0.12156 15.76336,-0.58979 22.02347,-1.24527 32.10615,0.0601 44.73908,5.79219 6.68132,3.0316 14.8744,8.48303 21.52381,14.32129 l 2.44258,2.14461 -2.2154,4.10512 c -1.21847,2.25786 -2.52189,4.52426 -2.8965,5.03656 -0.50892,0.696 -5.15461,1.3264 -18.37672,2.4935 l -17.69562,1.56204 -30.3551,-8.34867 0,0 z"
     id="path2919" />
  <path
     inkscape:connector-curvature="0"
     style="fill:#502d16;fill-opacity:1;stroke:#502d16;stroke-width:0.65085948;stroke-opacity:1;stroke-miterlimit:4;stroke-dasharray:none"
     d="m 422.67321,971.36705 c -24.22016,-3.9377 -38.46975,-6.54052 -40.64861,-7.42485 -4.71723,-1.91459 -7.77623,-4.66196 -9.68632,-8.69956 -2.81827,-5.95733 -2.77087,-7.19575 0.82321,-21.50696 29.74451,-118.43922 26.26086,-221.70432 -10.78629,-319.7355 -3.0117,-7.96933 -3.9805,-9.89753 -4.97704,-9.90578 -1.21683,-0.0101 -1.21683,-0.0335 0,-1.41192 0.68057,-0.77091 4.1442,-3.81946 7.69695,-6.77454 l 6.45955,-5.37288 3.46239,8.23605 c 6.64157,15.79842 12.54317,33.56965 18.78779,56.5748 4.30539,15.86103 4.5517,16.979 6.9831,31.69503 4.08711,24.73727 5.45941,40.63288 6.01646,69.68973 0.82349,42.95574 -2.80697,86.1574 -13.37122,159.1145 -1.78253,12.3102 -3.17982,22.42734 -3.10508,22.48254 0.0747,0.0552 17.08939,2.54856 37.81035,5.54079 l 37.67446,5.44044 3.09004,2.86194 c 5.35442,4.95916 7.44452,9.70098 6.22416,14.12075 -1.27428,4.61506 -9.20521,11.36482 -13.17634,11.21397 -1.09114,-0.0414 -18.76605,-2.80379 -39.27756,-6.13855 l 0,0 z"
     id="path2921" />
  <path
     inkscape:connector-curvature="0"
     style="fill:#00afd5;fill-opacity:1;stroke:#00afd5;stroke-width:0.65085948;stroke-opacity:1;stroke-miterlimit:4;stroke-dasharray:none"
     d="m 217.96723,517.31371 c -19.09307,-19.98863 -18.04577,-18.34667 -18.11157,-28.39513 -0.0633,-9.66753 2.19716,-11.8015 10.49654,-9.90912 2.60187,0.59326 5.5174,1.42858 6.47895,1.85625 1.81436,0.80697 24.56752,20.40604 24.5476,21.14476 -0.006,0.2303 -1.41204,7.8133 -3.12407,16.8511 l -3.11278,16.43238 -17.17467,-17.98024 z"
     id="path2923" />
  <path
     inkscape:connector-curvature="0"
     style="fill:#00afd5;fill-opacity:1;stroke:#00afd5;stroke-width:0.65085948;stroke-opacity:1;stroke-miterlimit:4;stroke-dasharray:none"
     d="m 222.55281,475.73341 c -19.55269,-23.3488 -20.62478,-24.91395 -20.73599,-30.27251 -0.10898,-5.25109 2.38664,-7.35741 8.65508,-7.30497 7.89438,0.0661 9.80638,1.10535 24.42254,13.27521 7.32379,6.09801 13.40941,11.35924 13.52361,11.69162 0.22745,0.66198 -5.4979,31.98453 -6.24251,34.15188 -0.38767,1.12842 -3.49888,-2.28697 -19.62273,-21.54123 z"
     id="path2925" />
  <path
     inkscape:connector-curvature="0"
     style="fill:#00afd5;fill-opacity:1;stroke:#00afd5;stroke-width:0.65085948;stroke-opacity:1;stroke-miterlimit:4;stroke-dasharray:none"
     d="m 244.04043,455.0168 c -2.65075,-2.86107 -7.35214,-7.83265 -10.44755,-11.04797 -7.40246,-7.68924 -8.00955,-8.69061 -8.00544,-13.2048 0.005,-5.89545 2.93107,-10.1144 7.014,-10.1144 1.78163,0 3.8377,1.264 11.04152,6.7879 4.86872,3.73335 9.20351,7.03246 9.63286,7.33137 0.59378,0.41339 0.26259,3.28972 -1.38366,12.01686 -1.19037,6.31036 -2.35958,11.91429 -2.59824,12.45318 -0.32347,0.73036 -1.66089,-0.3445 -5.25349,-4.22214 l 0,0 z"
     id="path2927" />
  <path
     inkscape:connector-curvature="0"
     style="fill:none;stroke:#000000;stroke-width:1.00200105;stroke-linecap:butt;stroke-linejoin:miter;stroke-opacity:1;stroke-miterlimit:4;stroke-dasharray:none"
     d="M 210.08403,511.02988 225.1634,485.63305"
     id="path2929" />
  <path
     inkscape:connector-curvature="0"
     style="fill:none;stroke:#000000;stroke-width:1.00200105;stroke-linecap:butt;stroke-linejoin:miter;stroke-opacity:1;stroke-miterlimit:4;stroke-dasharray:none"
     d="m 216.43324,516.98226 15.47619,-25"
     id="path2931" />
  <path
     inkscape:connector-curvature="0"
     style="fill:none;stroke:#000000;stroke-width:1.00200105;stroke-linecap:butt;stroke-linejoin:miter;stroke-opacity:1;stroke-miterlimit:4;stroke-dasharray:none"
     d="m 217.22689,470.15686 17.06349,-20.63492"
     id="path2933" />
  <path
     inkscape:connector-curvature="0"
     style="fill:none;stroke:#000000;stroke-width:1.00200105;stroke-linecap:butt;stroke-linejoin:miter;stroke-opacity:1;stroke-miterlimit:4;stroke-dasharray:none"
     d="m 209.29038,461.4267 17.0635,-17.85714"
     id="path2935" />
  <path
     inkscape:connector-curvature="0"
     style="fill:none;stroke:#000000;stroke-width:1.00200105;stroke-linecap:butt;stroke-linejoin:miter;stroke-opacity:1;stroke-miterlimit:4;stroke-dasharray:none"
     d="m 230.71895,442.37908 11.90477,-17.06349"
     id="path2937" />
  <path
     inkscape:connector-curvature="0"
     style="fill:#ffffff;stroke:#ffffff;stroke-width:1.00200105;stroke-linecap:butt;stroke-linejoin:miter;stroke-opacity:1;stroke-miterlimit:4;stroke-dasharray:none"
     d="m 236.67134,449.12511 13.09523,-19.44444"
     id="path2939" />
  <path
     inkscape:connector-curvature="0"
     style="fill:#ffffff;fill-opacity:1;stroke:#ffffff;stroke-width:0.39761943;stroke-opacity:1;stroke-miterlimit:4;stroke-dasharray:none"
     d="m 235.41441,446.09246 c -0.75644,-0.81813 -1.88304,-2.05303 -2.50357,-2.74422 l -1.12823,-1.25671 5.42856,-7.76259 5.42857,-7.76259 2.6498,2.01532 c 1.45739,1.10842 2.60295,2.18269 2.54567,2.38725 -0.10223,0.36517 -10.25488,15.73224 -10.77826,16.31401 -0.14697,0.16337 -0.88611,-0.37235 -1.64254,-1.19047 l 0,0 z"
     id="path2941" />
  <path
     inkscape:connector-curvature="0"
     style="fill:#ffffff;fill-opacity:1;stroke:#ffffff;stroke-width:0.39761943;stroke-opacity:1;stroke-miterlimit:4;stroke-dasharray:none"
     d="m 213.65314,465.16561 -3.19698,-3.8441 2.27735,-2.4059 c 1.25254,-1.32324 4.86483,-5.11787 8.0273,-8.43251 l 5.74996,-6.02661 2.9862,2.45518 c 1.64241,1.35035 3.07098,2.61886 3.1746,2.81889 0.18562,0.35833 -15.03579,19.19727 -15.55462,19.25135 -0.14675,0.0153 -1.70547,-1.70204 -3.46381,-3.8163 z"
     id="path2943" />
  <path
     inkscape:connector-curvature="0"
     style="fill:#ffffff;fill-opacity:1;stroke:#ffffff;stroke-width:0.39761943;stroke-opacity:1;stroke-miterlimit:4;stroke-dasharray:none"
     d="m 213.71296,512.95813 -2.45743,-2.48016 6.8795,-11.59035 6.8795,-11.59034 2.85797,2.4057 c 1.59811,1.34521 2.77275,2.62777 2.66465,2.90947 -0.34382,0.896 -13.93999,22.81052 -14.15689,22.8183 -0.11543,0.004 -1.31572,-1.10853 -2.6673,-2.47262 z"
     id="path2945" />
</svg>
